<svg width="551" height="429" viewBox="0 0 551 429" fill="none" xmlns="http://www.w3.org/2000/svg">
<path fill-rule="evenodd" clip-rule="evenodd" d="M10 14.7086H68.1146V24.7086H10V419H294.824V429H10H0V419V24.7086V14.7086H10ZM410.721 429H420.588V419V24.7086V14.7086H410.721V29H410.588V222H410.721V429Z" fill="#4A69BC"/>
<path d="M271.267 221.854L415.611 83.3486" stroke="#4A69BC" stroke-width="10"/>
<path d="M63.4615 14.7086V421.5" stroke="#4A69BC" stroke-width="10"/>
<path d="M11.183 20H34.8255H58.4681" stroke="#4A69BC" stroke-width="10"/>
<rect x="9" y="24" width="50" height="396" fill="#948FA9"/>
<path d="M420.588 15.9343H409.516L197.851 221.854H420.588" stroke="#4A69BC" stroke-width="10"/>
<path d="M207 217L411 20V82L272 217H207Z" fill="#948FA9"/>
<path d="M481 423.54H435.909V418.08H476.156V397.119H481V423.54ZM458.455 352.375C463.21 352.375 467.32 353.234 470.784 354.951C474.248 356.668 476.92 359.024 478.798 362.019C480.677 365.013 481.616 368.433 481.616 372.279C481.616 376.124 480.677 379.544 478.798 382.539C476.92 385.533 474.248 387.889 470.784 389.606C467.32 391.323 463.21 392.182 458.455 392.182C453.699 392.182 449.589 391.323 446.125 389.606C442.661 387.889 439.99 385.533 438.111 382.539C436.232 379.544 435.293 376.124 435.293 372.279C435.293 368.433 436.232 365.013 438.111 362.019C439.99 359.024 442.661 356.668 446.125 354.951C449.589 353.234 453.699 352.375 458.455 352.375ZM458.455 357.659C454.55 357.659 451.255 358.312 448.569 359.619C445.883 360.91 443.85 362.664 442.47 364.881C441.09 367.083 440.401 369.548 440.401 372.279C440.401 375.009 441.09 377.482 442.47 379.698C443.85 381.9 445.883 383.654 448.569 384.96C451.255 386.252 454.55 386.898 458.455 386.898C462.359 386.898 465.654 386.252 468.34 384.96C471.026 383.654 473.059 381.9 474.439 379.698C475.819 377.482 476.509 375.009 476.509 372.279C476.509 369.548 475.819 367.083 474.439 364.881C473.059 362.664 471.026 360.91 468.34 359.619C465.654 358.312 462.359 357.659 458.455 357.659ZM458.455 305.149C463.21 305.149 467.32 306.007 470.784 307.725C474.248 309.442 476.92 311.798 478.798 314.792C480.677 317.786 481.616 321.206 481.616 325.052C481.616 328.898 480.677 332.318 478.798 335.312C476.92 338.306 474.248 340.662 470.784 342.379C467.32 344.097 463.21 344.955 458.455 344.955C453.699 344.955 449.589 344.097 446.125 342.379C442.661 340.662 439.99 338.306 438.111 335.312C436.232 332.318 435.293 328.898 435.293 325.052C435.293 321.206 436.232 317.786 438.111 314.792C439.99 311.798 442.661 309.442 446.125 307.725C449.589 306.007 453.699 305.149 458.455 305.149ZM458.455 310.433C454.55 310.433 451.255 311.086 448.569 312.392C445.883 313.684 443.85 315.438 442.47 317.654C441.09 319.856 440.401 322.322 440.401 325.052C440.401 327.782 441.09 330.255 442.47 332.472C443.85 334.673 445.883 336.427 448.569 337.734C451.255 339.026 454.55 339.671 458.455 339.671C462.359 339.671 465.654 339.026 468.34 337.734C471.026 336.427 473.059 334.673 474.439 332.472C475.819 330.255 476.509 327.782 476.509 325.052C476.509 322.322 475.819 319.856 474.439 317.654C473.059 315.438 471.026 313.684 468.34 312.392C465.654 311.086 462.359 310.433 458.455 310.433ZM481 295.968H435.909V290.507H458.278V289.979L435.909 269.723V262.59L456.253 281.524L481 262.59V269.195L460.04 284.871L466.381 290.507H481V295.968ZM435.909 250.062H481V255.522H435.909V250.062ZM435.909 203.358H481V208.642L445.597 233.213V233.654H481V239.114H435.909V233.83L471.401 209.171V208.73H435.909V203.358ZM450 161.608C448.518 162.093 447.189 162.731 446.015 163.524C444.826 164.302 443.813 165.234 442.977 166.32C442.14 167.392 441.501 168.61 441.061 169.975C440.621 171.34 440.401 172.837 440.401 174.466C440.401 177.138 441.09 179.567 442.47 181.754C443.85 183.941 445.883 185.68 448.569 186.972C451.255 188.264 454.55 188.91 458.455 188.91C462.359 188.91 465.654 188.256 468.34 186.95C471.026 185.644 473.059 183.875 474.439 181.644C475.819 179.413 476.509 176.903 476.509 174.114C476.509 171.531 475.958 169.256 474.857 167.289C473.742 165.307 472.171 163.766 470.146 162.665C468.105 161.55 465.705 160.992 462.946 160.992L463.298 159.319V172.881H458.455V155.708H463.298C467.012 155.708 470.241 156.501 472.986 158.086C475.731 159.656 477.859 161.829 479.371 164.603C480.868 167.362 481.616 170.533 481.616 174.114C481.616 178.107 480.677 181.615 478.798 184.638C476.92 187.647 474.248 189.996 470.784 191.684C467.32 193.357 463.21 194.194 458.455 194.194C454.888 194.194 451.681 193.717 448.833 192.763C445.971 191.794 443.534 190.429 441.523 188.667C439.513 186.906 437.971 184.822 436.9 182.415C435.828 180.007 435.293 177.358 435.293 174.466C435.293 172.089 435.652 169.872 436.371 167.817C437.076 165.748 438.081 163.906 439.388 162.291C440.679 160.662 442.228 159.304 444.033 158.218C445.824 157.132 447.813 156.383 450 155.972V161.608ZM481 128.919H435.909V101.882H440.753V123.458H455.989V103.907H460.832V123.458H481V128.919ZM458.455 54.4846C463.21 54.4846 467.32 55.3432 470.784 57.0605C474.248 58.7779 476.92 61.1337 478.798 64.128C480.677 67.1223 481.616 70.5423 481.616 74.388C481.616 78.2336 480.677 81.6536 478.798 84.6479C476.92 87.6422 474.248 89.998 470.784 91.7154C467.32 93.4327 463.21 94.2914 458.455 94.2914C453.699 94.2914 449.589 93.4327 446.125 91.7154C442.661 89.998 439.99 87.6422 438.111 84.6479C436.232 81.6536 435.293 78.2336 435.293 74.388C435.293 70.5423 436.232 67.1223 438.111 64.128C439.99 61.1337 442.661 58.7779 446.125 57.0605C449.589 55.3432 453.699 54.4846 458.455 54.4846ZM458.455 59.7686C454.55 59.7686 451.255 60.4218 448.569 61.7282C445.883 63.0198 443.85 64.7739 442.47 66.9902C441.09 69.1919 440.401 71.6578 440.401 74.388C440.401 77.1181 441.09 79.5913 442.47 81.8077C443.85 84.0094 445.883 85.7634 448.569 87.0698C451.255 88.3614 454.55 89.0073 458.455 89.0073C462.359 89.0073 465.654 88.3614 468.34 87.0698C471.026 85.7634 473.059 84.0094 474.439 81.8077C475.819 79.5913 476.509 77.1181 476.509 74.388C476.509 71.6578 475.819 69.1919 474.439 66.9902C473.059 64.7739 471.026 63.0198 468.34 61.7282C465.654 60.4218 462.359 59.7686 458.455 59.7686ZM481 45.3034H435.909V30.0676C435.909 26.5449 436.511 23.6533 437.714 21.3929C438.903 19.1325 440.54 17.4592 442.624 16.373C444.709 15.2869 447.079 14.7438 449.736 14.7438C452.393 14.7438 454.748 15.2869 456.803 16.373C458.858 17.4592 460.473 19.1252 461.647 21.3709C462.807 23.6167 463.386 26.4862 463.386 29.9796V42.3091H458.455V30.1557C458.455 27.7485 458.102 25.811 457.398 24.3432C456.693 22.8607 455.695 21.7892 454.403 21.1287C453.097 20.4535 451.541 20.1159 449.736 20.1159C447.93 20.1159 446.353 20.4535 445.002 21.1287C443.652 21.8039 442.61 22.8828 441.876 24.3652C441.127 25.8477 440.753 27.8072 440.753 30.2438V39.8432H481V45.3034ZM460.744 24.079L481 12.9824V19.3233L460.744 30.2438V24.079Z" fill="black"/>
<ellipse cx="457.6" cy="372.516" rx="5.59955" ry="5.51571" fill="black"/>
<ellipse cx="457.6" cy="325.516" rx="5.59955" ry="5.51571" fill="black"/>
</svg>
