<svg xmlns="http://www.w3.org/2000/svg" fill="none" viewBox="0 0 16 16"><path fill="#0AF" d="M6.36 11.3H1.34a.84.84 0 0 0-.84.85c0 .46.37.83.84.83h5.02c.46 0 .84-.37.84-.83a.84.84 0 0 0-.84-.84ZM14.74 11.3H9.72a.84.84 0 0 0-.84.85c0 .46.38.83.84.83h5.02c.46 0 .84-.37.84-.83a.84.84 0 0 0-.84-.84ZM6.36 6.28H1.34a.84.84 0 0 0-.84.84c0 .46.37.83.84.83h5.02c.46 0 .84-.37.84-.83a.84.84 0 0 0-.84-.84ZM14.74 6.28H9.72a.84.84 0 0 0-.84.84c0 .46.38.83.84.83h5.02c.46 0 .84-.37.84-.83a.84.84 0 0 0-.84-.84ZM6.36 1.25H1.34a.84.84 0 0 0-.84.84c0 .46.37.84.84.84h5.02c.46 0 .84-.38.84-.84a.84.84 0 0 0-.84-.84ZM14.74 1.25H9.72a.84.84 0 0 0-.84.84c0 .46.38.84.84.84h5.02c.46 0 .84-.38.84-.84a.84.84 0 0 0-.84-.84Z"/><path fill="#0AF" d="M11.4 9.64v5.02a.84.84 0 1 0 1.68 0V9.64a.84.84 0 0 0-.84-.84.84.84 0 0 0-.84.84Z"/></svg>